PathFileType	3	(X/Y/Z)	walking_2__fused_aligned.trc
DataRate	CameraRate	NumFrames	NumMarkers	Units	OrigDataRate	OrigDataStartFrame	OrigNumFrames
100.0	100.0	7	19	mm	100.0	1800	6270
Frame#	Time	pelvis			neck			head			hip_left			hip_right			knee_left			knee_right			ankle_left			ankle_right			heel_left			heel_right			toe_left			toe_right			shoulder_left			shoulder_right			elbow_left			elbow_right			wrist_left			wrist_right			
		X1	Y1	Z1	X2	Y2	Z2	X3	Y3	Z3	X4	Y4	Z4	X5	Y5	Z5	X6	Y6	Z6	X7	Y7	Z7	X8	Y8	Z8	X9	Y9	Z9	X10	Y10	Z10	X11	Y11	Z11	X12	Y12	Z12	X13	Y13	Z13	X14	Y14	Z14	X15	Y15	Z15	X16	Y16	Z16	X17	Y17	Z17	X18	Y18	Z18	X19	Y19	Z19	
1800	17.99000	55.508004	931.527668	150.326150	16.529658	1485.348925	241.672739	-6.259133	1575.116281	385.200682	133.373226	934.445902	150.310230	-22.357249	928.609466	150.341952	151.495889	493.126470	133.914489	-65.467650	543.620642	375.399304	132.898928	167.297296	-108.713834	-86.380904	127.826780	390.160641	126.707263	141.645263	-158.423313	-85.947909	74.270412	362.504344	135.305876	39.565691	15.607282	-96.496833	88.607607	585.321015	199.154246	1446.684261	235.187274	-144.537972	1420.117056	172.911823	291.908638	1167.288632	243.113398	-183.294885	1135.229598	100.469975	301.130879	935.217088	379.450833	-244.809659	866.622985	95.826667
1801	18.00000	51.451965	931.212632	150.892606	12.551932	1484.936386	242.386808	-10.058150	1574.563967	385.876129	129.361938	933.990375	150.759612	-26.458046	928.434923	151.025464	149.091517	493.442682	137.631467	-67.982759	542.498060	374.219245	130.451743	171.543290	-111.702772	-88.719808	124.541367	393.078251	124.133437	147.038282	-162.045541	-88.441247	70.361453	365.766401	133.236344	40.228703	9.428988	-98.122171	86.941427	589.851650	194.961461	1446.571284	235.479572	-148.491411	1419.767398	174.030524	287.822889	1167.432327	243.109163	-187.539196	1135.042369	101.505886	297.339589	935.805118	379.777038	-249.361489	865.940654	95.822696
1802	18.01000	47.395926	930.897596	151.459062	8.574207	1484.523848	243.100877	-13.857167	1574.011653	386.551575	125.350651	933.534848	151.208994	-30.558843	928.260379	151.708976	146.687145	493.758893	141.348445	-70.497868	541.375478	373.039187	128.004558	175.789285	-114.691710	-91.058712	121.255954	395.995860	121.559610	152.431301	-165.667770	-90.934585	66.452494	369.028457	131.166812	40.891715	3.250693	-99.747510	85.275247	594.382284	190.768676	1446.458308	235.771869	-152.444850	1419.417740	175.149225	283.737140	1167.576023	243.104928	-191.783507	1134.855140	102.541798	293.548300	936.393147	380.103243	-253.913319	865.258322	95.818726
1803	18.02000	43.339888	930.582560	152.025519	4.596481	1484.111310	243.814947	-17.656185	1573.459338	387.227021	121.339364	933.079320	151.658376	-34.659640	928.085835	152.392487	144.282773	494.075104	145.065423	-73.012977	540.252896	371.859128	125.557373	180.035279	-117.680648	-93.397616	117.970541	398.913469	118.985783	157.824320	-169.289999	-93.427923	62.543534	372.290513	129.097281	41.554728	-2.927601	-101.372848	83.609067	598.912919	186.575890	1446.345331	236.064167	-156.398289	1419.068082	176.267926	279.651391	1167.719719	243.100693	-196.027818	1134.667911	103.577709	289.757011	936.981177	380.429448	-258.465149	864.575991	95.814756
1804	18.03000	40.262043	930.984850	152.935026	1.718239	1484.517067	244.370356	-19.942446	1573.872281	387.796257	118.275438	933.360824	152.588857	-37.751397	928.608909	153.281039	142.596549	495.343703	151.424160	-75.314006	538.949279	368.541958	124.422946	182.907451	-114.308309	-94.716008	117.291604	394.084644	117.898254	161.283415	-166.271363	-94.697153	62.031006	367.395517	127.761676	42.328281	-1.188859	-102.220836	82.622503	593.534981	183.462268	1446.950123	235.424131	-159.539200	1419.383237	178.043324	276.386772	1168.241223	241.374862	-199.584983	1134.741763	106.773753	287.864423	937.534348	378.038198	-260.872522	865.281657	101.319233
1805	18.04000	37.184199	931.387141	153.844533	-1.160003	1484.922824	244.925765	-22.228707	1574.285224	388.365493	115.211511	933.642327	153.519338	-40.843154	929.131982	154.169591	140.910325	496.612302	157.782897	-77.615035	537.645662	365.224787	123.288518	185.779622	-110.935970	-96.034401	116.612666	389.255819	116.810725	164.742509	-163.252727	-95.966383	61.518478	362.500521	126.426071	43.101834	0.549883	-103.068824	81.635938	588.157044	180.348645	1447.554914	234.784094	-162.680110	1419.698393	179.818722	273.122154	1168.762726	239.649031	-203.142147	1134.815615	109.969796	285.971836	938.087520	375.646947	-263.279894	865.987323	106.823709
1806	18.05000	34.106355	931.789431	154.754041	-4.038244	1485.328582	245.481174	-24.514968	1574.698167	388.934729	112.147585	933.923831	154.449819	-43.934911	929.655055	155.058143	139.224101	497.880900	164.141634	-79.916064	536.342046	361.907617	122.154091	188.651794	-107.563631	-97.352793	115.933729	384.426994	115.723196	168.201604	-160.234091	-97.235613	61.005950	357.605525	125.090466	43.875386	2.288625	-103.916812	80.649374	582.779107	177.235022	1448.159706	234.144058	-165.821020	1420.013549	181.594119	269.857536	1169.284229	237.923200	-206.699312	1134.889467	113.165840	284.079248	938.640692	373.255696	-265.687267	866.692989	112.328186
